<svg width="266" height="260" viewBox="0 0 266 260" fill="none" xmlns="http://www.w3.org/2000/svg">
<path d="M237.444 32H58.5556C44.5 32 33 43.4 33 57.3333V234.667C33 248.6 44.5 260 58.5556 260H237.444C251.5 260 263 248.6 263 234.667V57.3333C263 43.4 251.5 32 237.444 32ZM167.933 76.7133C171.639 73.04 177.772 73.04 181.478 76.7133L192.722 87.86L203.967 76.7133C207.672 73.04 213.806 73.04 217.511 76.7133C221.217 80.3867 221.217 86.4667 217.511 90.14L206.267 101.287L217.511 112.433C221.217 116.107 221.217 122.187 217.511 125.86C213.806 129.533 207.672 129.533 203.967 125.86L192.722 114.84L181.478 125.987C177.772 129.66 171.639 129.66 167.933 125.987C164.228 122.313 164.228 116.233 167.933 112.56L179.178 101.413L167.933 90.2667C164.1 86.4667 164.1 80.3867 167.933 76.7133ZM84.1111 91.7867H128.833C134.072 91.7867 138.417 96.0933 138.417 101.287C138.417 106.48 134.072 110.787 128.833 110.787H84.1111C78.8722 110.787 74.5278 106.48 74.5278 101.287C74.5278 96.0933 78.8722 91.7867 84.1111 91.7867ZM132.028 196.667H116.056V212.5C116.056 217.693 111.711 222 106.472 222C101.233 222 96.8889 217.693 96.8889 212.5V196.667H80.9167C75.6778 196.667 71.3333 192.36 71.3333 187.167C71.3333 181.973 75.6778 177.667 80.9167 177.667H96.8889V161.833C96.8889 156.64 101.233 152.333 106.472 152.333C111.711 152.333 116.056 156.64 116.056 161.833V177.667H132.028C137.267 177.667 141.611 181.973 141.611 187.167C141.611 192.36 137.267 196.667 132.028 196.667ZM215.083 212.5H170.361C165.122 212.5 160.778 208.193 160.778 203C160.778 197.807 165.122 193.5 170.361 193.5H215.083C220.322 193.5 224.667 197.807 224.667 203C224.667 208.193 220.322 212.5 215.083 212.5ZM215.083 180.833H170.361C165.122 180.833 160.778 176.527 160.778 171.333C160.778 166.14 165.122 161.833 170.361 161.833H215.083C220.322 161.833 224.667 166.14 224.667 171.333C224.667 176.527 220.322 180.833 215.083 180.833Z" fill="#D0BCFF"/>
</svg>
