<svg width="230" height="230" viewBox="0 0 230 230" fill="none" xmlns="http://www.w3.org/2000/svg">
<g clip-path="url(#clip0_267_3410)">
<path d="M18.5676 96.25C8.29351 96.25 0 104.558 0 114.85C0 125.142 8.29351 133.45 18.5676 133.45C28.8416 133.45 37.1351 125.142 37.1351 114.85C37.1351 104.558 28.8416 96.25 18.5676 96.25ZM18.5676 21.85C8.29351 21.85 0 30.158 0 40.45C0 50.742 8.29351 59.05 18.5676 59.05C28.8416 59.05 37.1351 50.742 37.1351 40.45C37.1351 30.158 28.8416 21.85 18.5676 21.85ZM18.5676 170.65C8.29351 170.65 0 179.082 0 189.25C0 199.418 8.4173 207.85 18.5676 207.85C28.7178 207.85 37.1351 199.418 37.1351 189.25C37.1351 179.082 28.8416 170.65 18.5676 170.65ZM68.0811 201.65H216.622C223.43 201.65 229 196.07 229 189.25C229 182.43 223.43 176.85 216.622 176.85H68.0811C61.273 176.85 55.7027 182.43 55.7027 189.25C55.7027 196.07 61.273 201.65 68.0811 201.65ZM68.0811 127.25H216.622C223.43 127.25 229 121.67 229 114.85C229 108.03 223.43 102.45 216.622 102.45H68.0811C61.273 102.45 55.7027 108.03 55.7027 114.85C55.7027 121.67 61.273 127.25 68.0811 127.25ZM55.7027 40.45C55.7027 47.27 61.273 52.85 68.0811 52.85H216.622C223.43 52.85 229 47.27 229 40.45C229 33.63 223.43 28.05 216.622 28.05H68.0811C61.273 28.05 55.7027 33.63 55.7027 40.45Z" fill="#D0BCFF"/>
</g>
<defs>
<clipPath id="clip0_267_3410">
<rect width="230" height="230" fill="white"/>
</clipPath>
</defs>
</svg>
