<svg width="200" height="200" viewBox="0 0 200 200" fill="none" xmlns="http://www.w3.org/2000/svg">
<path d="M72.2414 4.82759C72.2414 5.75181 72.2414 8.7931 72.2414 8.7931C72.2414 8.7931 69.5417 8.7931 68.2758 8.79291C67.2873 8.7931 64.3103 8.79291 64.3103 8.79291C64.3103 8.79291 64.3103 6.02909 64.3103 4.82749C64.3104 2.63753 66.0858 0.862076 68.2758 0.862076C70.4658 0.862076 72.2414 2.63752 72.2414 4.82759Z" fill="#D0BCFF"/>
<path d="M84.1379 0.862076C86.3281 0.862076 88.1034 2.63752 88.1034 4.82759C88.1034 7.01777 86.3281 8.7931 84.1379 8.7931C81.9478 8.7931 80.1724 7.01777 80.1724 4.82759C80.1724 2.63752 81.9478 0.862076 84.1379 0.862076Z" fill="#D0BCFF"/>
<path d="M111.897 4.82759C111.897 5.75181 111.897 8.7931 111.897 8.7931C111.897 8.7931 109.197 8.7931 107.931 8.79291C106.942 8.7931 103.966 8.79291 103.966 8.79291C103.966 8.79291 103.966 6.02909 103.966 4.82749C103.966 2.63753 105.741 0.862076 107.931 0.862076C110.121 0.862076 111.897 2.63752 111.897 4.82759Z" fill="#D0BCFF"/>
<path d="M123.793 0.862076C125.983 0.862076 127.759 2.63752 127.759 4.82759C127.759 7.01777 125.983 8.7931 123.793 8.7931C121.603 8.7931 119.828 7.01777 119.828 4.82759C119.828 2.63752 121.603 0.862076 123.793 0.862076Z" fill="#D0BCFF"/>
<path d="M64.3103 12.7586C64.3103 11.8343 64.3103 8.79311 64.3103 8.79311C64.3103 8.79311 67.0101 8.79311 68.2758 8.79311C69.2644 8.79311 72.2414 8.79311 72.2414 8.79311C72.2414 8.79311 72.2414 11.5572 72.2414 12.7586C72.2414 14.9486 70.4658 16.7241 68.2758 16.7241C66.0858 16.7241 64.3103 14.9486 64.3103 12.7586Z" fill="#D0BCFF"/>
<path d="M103.966 12.7586C103.966 11.8343 103.966 8.79311 103.966 8.79311C103.966 8.79311 106.665 8.79311 107.931 8.79311C108.92 8.79311 111.897 8.79311 111.897 8.79311C111.897 8.79311 111.897 11.5572 111.897 12.7586C111.897 14.9486 110.121 16.7241 107.931 16.7241C105.741 16.7241 103.966 14.9486 103.966 12.7586Z" fill="#D0BCFF"/>
<path d="M76.2069 16.7241C77.1311 16.7241 80.1724 16.7241 80.1724 16.7241C80.1724 16.7241 80.1724 19.4236 80.1724 20.6897C80.1724 21.6779 80.1724 24.6552 80.1724 24.6552C80.1724 24.6552 77.4089 24.6552 76.2069 24.6552C74.016 24.6552 72.2414 22.879 72.2414 20.6897C72.2414 18.5001 74.016 16.7241 76.2069 16.7241Z" fill="#D0BCFF"/>
<path d="M84.1379 24.6552C83.2136 24.6552 80.1724 24.6552 80.1724 24.6552C80.1724 24.6552 80.1724 21.9553 80.1724 20.6897C80.1724 19.7011 80.1724 16.7241 80.1724 16.7241C80.1724 16.7241 82.9365 16.7241 84.1379 16.7241C86.3279 16.7241 88.1034 18.4996 88.1034 20.6897C88.1034 22.8796 86.3279 24.6552 84.1379 24.6552Z" fill="#D0BCFF"/>
<path d="M123.793 16.7241C124.717 16.7241 127.759 16.7241 127.759 16.7241C127.759 16.7241 127.759 19.4236 127.759 20.6897C127.759 21.6779 127.759 24.6552 127.759 24.6552C127.759 24.6552 124.995 24.6552 123.793 24.6552C121.602 24.6552 119.828 22.879 119.828 20.6897C119.828 18.5001 121.602 16.7241 123.793 16.7241Z" fill="#D0BCFF"/>
<path d="M127.759 16.7241V24.6552H135.69C135.69 20.2749 132.139 16.7241 127.759 16.7241Z" fill="#D0BCFF"/>
<path d="M68.2758 24.6552C70.466 24.6552 72.2414 26.4306 72.2414 28.6207C72.2414 30.8109 70.466 32.5862 68.2758 32.5862C66.0858 32.5862 64.3103 30.8109 64.3103 28.6207C64.3103 26.4306 66.0858 24.6552 68.2758 24.6552Z" fill="#D0BCFF"/>
<path d="M119.828 28.6207C119.828 29.5449 119.828 32.5862 119.828 32.5862C119.828 32.5862 117.128 32.5862 115.862 32.586C114.873 32.5862 111.897 32.586 111.897 32.586C111.897 32.586 111.897 29.8222 111.897 28.6206C111.897 26.4306 113.672 24.6552 115.862 24.6552C118.052 24.6552 119.828 26.4306 119.828 28.6207Z" fill="#D0BCFF"/>
<path d="M135.69 24.6552H127.759V32.5862H135.69V24.6552Z" fill="#D0BCFF"/>
<path d="M80.1724 36.5517C80.1724 37.4759 80.1724 40.5172 80.1724 40.5172C80.1724 40.5172 77.4728 40.5172 76.2069 40.5171C75.2183 40.5172 72.2414 40.5171 72.2414 40.5171C72.2414 40.5171 72.2414 37.7532 72.2414 36.5516C72.2415 34.3617 74.0168 32.5862 76.2068 32.5862C78.3968 32.5862 80.1724 34.3616 80.1724 36.5517Z" fill="#D0BCFF"/>
<path d="M88.1035 40.5172H96.0345V32.5862C91.6544 32.5862 88.1035 36.137 88.1035 40.5172Z" fill="#D0BCFF"/>
<path d="M100 40.5172C99.0757 40.5172 96.0345 40.5172 96.0345 40.5172C96.0345 40.5172 96.0345 37.8174 96.0345 36.5517C96.0345 35.5631 96.0345 32.5862 96.0345 32.5862C96.0345 32.5862 98.7986 32.5862 100 32.5862C102.19 32.5862 103.966 34.3616 103.966 36.5517C103.966 38.7417 102.19 40.5172 100 40.5172Z" fill="#D0BCFF"/>
<path d="M119.828 40.5172V32.5862H111.897C111.897 36.9664 115.447 40.5172 119.828 40.5172Z" fill="#D0BCFF"/>
<path d="M127.759 32.5862H119.828V40.5172H127.759V32.5862Z" fill="#D0BCFF"/>
<path d="M135.69 32.5862H127.759V40.5172C132.139 40.5172 135.69 36.9664 135.69 32.5862Z" fill="#D0BCFF"/>
<path d="M72.2414 44.4828C72.2414 43.5585 72.2414 40.5172 72.2414 40.5172C72.2414 40.5172 74.9411 40.5172 76.2069 40.5172C77.1955 40.5172 80.1724 40.5172 80.1724 40.5172C80.1724 40.5172 80.1724 43.2814 80.1724 44.4828C80.1724 46.6727 78.3968 48.4483 76.2069 48.4483C74.0168 48.4483 72.2414 46.6727 72.2414 44.4828Z" fill="#D0BCFF"/>
<path d="M88.1035 44.4828C88.1035 43.5585 88.1035 40.5172 88.1035 40.5172C88.1035 40.5172 90.8032 40.5172 92.069 40.5172C93.0576 40.5172 96.0345 40.5172 96.0345 40.5172C96.0345 40.5172 96.0345 43.2814 96.0345 44.4828C96.0345 46.6727 94.2589 48.4483 92.069 48.4483C89.8789 48.4483 88.1035 46.6727 88.1035 44.4828Z" fill="#D0BCFF"/>
<path d="M107.931 40.5172C110.121 40.5172 111.897 42.2927 111.897 44.4828C111.897 46.6729 110.121 48.4483 107.931 48.4483C105.741 48.4483 103.966 46.6729 103.966 44.4828C103.966 42.2927 105.741 40.5172 107.931 40.5172Z" fill="#D0BCFF"/>
<path d="M72.2414 52.4138C72.2414 53.338 72.2414 56.3793 72.2414 56.3793C72.2414 56.3793 69.5417 56.3793 68.2758 56.3791C67.2873 56.3793 64.3103 56.3791 64.3103 56.3791C64.3103 56.3791 64.3103 53.6153 64.3103 52.4137C64.3104 50.2237 66.0858 48.4483 68.2758 48.4483C70.4658 48.4483 72.2414 50.2237 72.2414 52.4138Z" fill="#D0BCFF"/>
<path d="M84.1379 48.4483C86.3281 48.4483 88.1034 50.2237 88.1034 52.4138C88.1034 54.604 86.3281 56.3793 84.1379 56.3793C81.9478 56.3793 80.1724 54.604 80.1724 52.4138C80.1724 50.2237 81.9478 48.4483 84.1379 48.4483Z" fill="#D0BCFF"/>
<path d="M100 48.4483C102.19 48.4483 103.966 50.2237 103.966 52.4138C103.966 54.604 102.19 56.3793 100 56.3793C97.8099 56.3793 96.0345 54.604 96.0345 52.4138C96.0345 50.2237 97.8099 48.4483 100 48.4483Z" fill="#D0BCFF"/>
<path d="M115.862 48.4483C118.052 48.4483 119.828 50.2237 119.828 52.4138C119.828 54.604 118.052 56.3793 115.862 56.3793C113.672 56.3793 111.897 54.604 111.897 52.4138C111.897 50.2237 113.672 48.4483 115.862 48.4483Z" fill="#D0BCFF"/>
<path d="M135.69 52.4138C135.69 53.338 135.69 56.3793 135.69 56.3793C135.69 56.3793 132.99 56.3793 131.724 56.3791C130.736 56.3793 127.759 56.3791 127.759 56.3791C127.759 56.3791 127.759 53.6153 127.759 52.4137C127.759 50.2237 129.534 48.4483 131.724 48.4483C133.914 48.4483 135.69 50.2237 135.69 52.4138Z" fill="#D0BCFF"/>
<path d="M64.3103 60.3448C64.3103 59.4205 64.3103 56.3793 64.3103 56.3793C64.3103 56.3793 67.0101 56.3793 68.2758 56.3793C69.2644 56.3793 72.2414 56.3793 72.2414 56.3793C72.2414 56.3793 72.2414 59.1435 72.2414 60.3448C72.2414 62.5348 70.4658 64.3104 68.2758 64.3104C66.0858 64.3104 64.3103 62.5348 64.3103 60.3448Z" fill="#D0BCFF"/>
<path d="M127.759 60.3448C127.759 59.4205 127.759 56.3793 127.759 56.3793C127.759 56.3793 130.458 56.3793 131.724 56.3793C132.713 56.3793 135.69 56.3793 135.69 56.3793C135.69 56.3793 135.69 59.1435 135.69 60.3448C135.69 62.5348 133.914 64.3104 131.724 64.3104C129.534 64.3104 127.759 62.5348 127.759 60.3448Z" fill="#D0BCFF"/>
<path d="M4.82757 64.3104C7.01776 64.3104 8.79309 66.0858 8.79309 68.2759C8.79309 70.4661 7.01776 72.2414 4.82757 72.2414C2.6375 72.2414 0.862061 70.4661 0.862061 68.2759C0.862061 66.0858 2.6375 64.3104 4.82757 64.3104Z" fill="#D0BCFF"/>
<path d="M16.7241 72.2414H24.6552V64.3104C20.275 64.3104 16.7241 67.8611 16.7241 72.2414Z" fill="#D0BCFF"/>
<path d="M24.6552 64.3104V72.2414H32.5862C32.5862 67.8611 29.0353 64.3104 24.6552 64.3104Z" fill="#D0BCFF"/>
<path d="M44.4828 64.3104C45.407 64.3104 48.4483 64.3104 48.4483 64.3104C48.4483 64.3104 48.4483 67.0098 48.4483 68.2759C48.4483 69.2642 48.4483 72.2414 48.4483 72.2414C48.4483 72.2414 45.6848 72.2414 44.4828 72.2414C42.2919 72.2414 40.5172 70.4652 40.5172 68.2759C40.5172 66.0863 42.2919 64.3104 44.4828 64.3104Z" fill="#D0BCFF"/>
<path d="M56.3793 64.3104H48.4483V72.2414H56.3793V64.3104Z" fill="#D0BCFF"/>
<path d="M60.3448 72.2414C59.4205 72.2414 56.3793 72.2414 56.3793 72.2414C56.3793 72.2414 56.3793 69.5416 56.3793 68.2759C56.3793 67.2873 56.3793 64.3104 56.3793 64.3104C56.3793 64.3104 59.1434 64.3104 60.3448 64.3104C62.5348 64.3104 64.3103 66.0858 64.3103 68.2759C64.3103 70.4659 62.5348 72.2414 60.3448 72.2414Z" fill="#D0BCFF"/>
<path d="M76.2069 64.3104C78.397 64.3104 80.1724 66.0858 80.1724 68.2759C80.1724 70.4661 78.397 72.2414 76.2069 72.2414C74.0168 72.2414 72.2414 70.4661 72.2414 68.2759C72.2414 66.0858 74.0168 64.3104 76.2069 64.3104Z" fill="#D0BCFF"/>
<path d="M96.0345 68.2759C96.0345 69.2001 96.0345 72.2414 96.0345 72.2414C96.0345 72.2414 93.3349 72.2414 92.069 72.2412C91.0804 72.2414 88.1035 72.2412 88.1035 72.2412C88.1035 72.2412 88.1035 69.4774 88.1035 68.2758C88.1035 66.0858 89.8789 64.3104 92.0689 64.3104C94.2589 64.3104 96.0345 66.0858 96.0345 68.2759Z" fill="#D0BCFF"/>
<path d="M111.897 68.2759C111.897 69.2001 111.897 72.2414 111.897 72.2414C111.897 72.2414 109.197 72.2414 107.931 72.2412C106.942 72.2414 103.966 72.2412 103.966 72.2412C103.966 72.2412 103.966 69.4774 103.966 68.2758C103.966 66.0858 105.741 64.3104 107.931 64.3104C110.121 64.3104 111.897 66.0858 111.897 68.2759Z" fill="#D0BCFF"/>
<path d="M147.586 64.3104C149.776 64.3104 151.552 66.0858 151.552 68.2759C151.552 70.4661 149.776 72.2414 147.586 72.2414C145.396 72.2414 143.621 70.4661 143.621 68.2759C143.621 66.0858 145.396 64.3104 147.586 64.3104Z" fill="#D0BCFF"/>
<path d="M171.379 64.3104C173.569 64.3104 175.345 66.0858 175.345 68.2759C175.345 70.4661 173.569 72.2414 171.379 72.2414C169.189 72.2414 167.414 70.4661 167.414 68.2759C167.414 66.0858 169.189 64.3104 171.379 64.3104Z" fill="#D0BCFF"/>
<path d="M183.276 72.2414H191.207V64.3104C186.827 64.3104 183.276 67.8611 183.276 72.2414Z" fill="#D0BCFF"/>
<path d="M195.172 72.2414C194.248 72.2414 191.207 72.2414 191.207 72.2414C191.207 72.2414 191.207 69.5416 191.207 68.2759C191.207 67.2873 191.207 64.3104 191.207 64.3104C191.207 64.3104 193.971 64.3104 195.172 64.3104C197.362 64.3104 199.138 66.0858 199.138 68.2759C199.138 70.4659 197.362 72.2414 195.172 72.2414Z" fill="#D0BCFF"/>
<path d="M12.7586 72.2414C13.6829 72.2414 16.7241 72.2414 16.7241 72.2414C16.7241 72.2414 16.7241 74.9408 16.7241 76.2069C16.7241 77.1952 16.7241 80.1724 16.7241 80.1724C16.7241 80.1724 13.9607 80.1724 12.7586 80.1724C10.5678 80.1724 8.79309 78.3962 8.79309 76.2069C8.79309 74.0173 10.5678 72.2414 12.7586 72.2414Z" fill="#D0BCFF"/>
<path d="M24.6552 72.2414H16.7241V80.1724H24.6552V72.2414Z" fill="#D0BCFF"/>
<path d="M32.5862 72.2414H24.6552V80.1724H32.5862V72.2414Z" fill="#D0BCFF"/>
<path d="M36.5517 80.1724C35.6274 80.1724 32.5862 80.1724 32.5862 80.1724C32.5862 80.1724 32.5862 77.4726 32.5862 76.2069C32.5862 75.2183 32.5862 72.2414 32.5862 72.2414C32.5862 72.2414 35.3503 72.2414 36.5517 72.2414C38.7417 72.2414 40.5172 74.0168 40.5172 76.2069C40.5172 78.3969 38.7417 80.1724 36.5517 80.1724Z" fill="#D0BCFF"/>
<path d="M68.2758 72.2414C70.466 72.2414 72.2414 74.0168 72.2414 76.2069C72.2414 78.3971 70.466 80.1724 68.2758 80.1724C66.0858 80.1724 64.3103 78.3971 64.3103 76.2069C64.3103 74.0168 66.0858 72.2414 68.2758 72.2414Z" fill="#D0BCFF"/>
<path d="M84.1379 72.2414C85.0622 72.2414 88.1034 72.2414 88.1034 72.2414C88.1034 72.2414 88.1034 74.9408 88.1034 76.2069C88.1034 77.1952 88.1034 80.1724 88.1034 80.1724C88.1034 80.1724 85.3399 80.1724 84.1379 80.1724C81.947 80.1724 80.1724 78.3962 80.1724 76.2069C80.1724 74.0173 81.947 72.2414 84.1379 72.2414Z" fill="#D0BCFF"/>
<path d="M96.0345 72.2414H88.1035V80.1724H96.0345V72.2414Z" fill="#D0BCFF"/>
<path d="M103.966 72.2414H96.0345V80.1724H103.966V72.2414Z" fill="#D0BCFF"/>
<path d="M111.897 72.2414H103.966V80.1724H111.897V72.2414Z" fill="#D0BCFF"/>
<path d="M115.862 80.1724C114.938 80.1724 111.897 80.1724 111.897 80.1724C111.897 80.1724 111.897 77.4726 111.897 76.2069C111.897 75.2183 111.897 72.2414 111.897 72.2414C111.897 72.2414 114.661 72.2414 115.862 72.2414C118.052 72.2414 119.828 74.0168 119.828 76.2069C119.828 78.3969 118.052 80.1724 115.862 80.1724Z" fill="#D0BCFF"/>
<path d="M131.724 72.2414C132.648 72.2414 135.69 72.2414 135.69 72.2414C135.69 72.2414 135.69 74.9408 135.69 76.2069C135.69 77.1952 135.69 80.1724 135.69 80.1724C135.69 80.1724 132.926 80.1724 131.724 80.1724C129.533 80.1724 127.759 78.3962 127.759 76.2069C127.759 74.0173 129.533 72.2414 131.724 72.2414Z" fill="#D0BCFF"/>
<path d="M135.69 72.2414V80.1724H143.621C143.621 75.7921 140.07 72.2414 135.69 72.2414Z" fill="#D0BCFF"/>
<path d="M155.517 72.2414C157.707 72.2414 159.483 74.0168 159.483 76.2069C159.483 78.3971 157.707 80.1724 155.517 80.1724C153.327 80.1724 151.552 78.3971 151.552 76.2069C151.552 74.0168 153.327 72.2414 155.517 72.2414Z" fill="#D0BCFF"/>
<path d="M183.276 76.2069C183.276 75.2826 183.276 72.2414 183.276 72.2414C183.276 72.2414 185.976 72.2414 187.241 72.2414C188.23 72.2414 191.207 72.2414 191.207 72.2414C191.207 72.2414 191.207 75.0055 191.207 76.2069C191.207 78.3969 189.431 80.1724 187.241 80.1724C185.051 80.1724 183.276 78.3969 183.276 76.2069Z" fill="#D0BCFF"/>
<path d="M4.82757 80.1724C7.01776 80.1724 8.79309 81.9478 8.79309 84.1379C8.79309 86.3281 7.01776 88.1035 4.82757 88.1035C2.6375 88.1035 0.862061 86.3281 0.862061 84.1379C0.862061 81.9478 2.6375 80.1724 4.82757 80.1724Z" fill="#D0BCFF"/>
<path d="M24.6552 88.1035V80.1724H16.7241C16.7241 84.5526 20.2749 88.1035 24.6552 88.1035Z" fill="#D0BCFF"/>
<path d="M32.5862 80.1724H24.6552V88.1035C29.0353 88.1035 32.5862 84.5526 32.5862 80.1724Z" fill="#D0BCFF"/>
<path d="M52.4138 80.1724C53.3381 80.1724 56.3793 80.1724 56.3793 80.1724C56.3793 80.1724 56.3793 82.8718 56.3793 84.1379C56.3793 85.1262 56.3793 88.1035 56.3793 88.1035C56.3793 88.1035 53.6158 88.1035 52.4138 88.1035C50.2229 88.1035 48.4483 86.3272 48.4483 84.1379C48.4483 81.9484 50.2229 80.1724 52.4138 80.1724Z" fill="#D0BCFF"/>
<path d="M56.3793 80.1724V88.1035H64.3103C64.3103 83.7232 60.7595 80.1724 56.3793 80.1724Z" fill="#D0BCFF"/>
<path d="M76.2069 80.1724C78.397 80.1724 80.1724 81.9478 80.1724 84.1379C80.1724 86.3281 78.397 88.1035 76.2069 88.1035C74.0168 88.1035 72.2414 86.3281 72.2414 84.1379C72.2414 81.9478 74.0168 80.1724 76.2069 80.1724Z" fill="#D0BCFF"/>
<path d="M96.0345 88.1035V80.1724H88.1035C88.1035 84.5526 91.6542 88.1035 96.0345 88.1035Z" fill="#D0BCFF"/>
<path d="M103.966 80.1724H96.0345V88.1035H103.966V80.1724Z" fill="#D0BCFF"/>
<path d="M111.897 80.1724H103.966V88.1035C108.346 88.1035 111.897 84.5526 111.897 80.1724Z" fill="#D0BCFF"/>
<path d="M135.69 84.1379C135.69 83.2136 135.69 80.1724 135.69 80.1724C135.69 80.1724 138.389 80.1724 139.655 80.1724C140.644 80.1724 143.621 80.1724 143.621 80.1724C143.621 80.1724 143.621 82.9365 143.621 84.1379C143.621 86.3279 141.845 88.1035 139.655 88.1035C137.465 88.1035 135.69 86.3279 135.69 84.1379Z" fill="#D0BCFF"/>
<path d="M163.448 80.1724C165.638 80.1724 167.414 81.9478 167.414 84.1379C167.414 86.3281 165.638 88.1035 163.448 88.1035C161.258 88.1035 159.483 86.3281 159.483 84.1379C159.483 81.9478 161.258 80.1724 163.448 80.1724Z" fill="#D0BCFF"/>
<path d="M44.4828 88.1035C46.6729 88.1035 48.4483 89.8789 48.4483 92.069C48.4483 94.2592 46.6729 96.0345 44.4828 96.0345C42.2927 96.0345 40.5172 94.2592 40.5172 92.069C40.5172 89.8789 42.2927 88.1035 44.4828 88.1035Z" fill="#D0BCFF"/>
<path d="M64.3103 96.0345V88.1035H56.3793C56.3793 92.4836 59.9301 96.0345 64.3103 96.0345Z" fill="#D0BCFF"/>
<path d="M68.2758 96.0345C67.3516 96.0345 64.3103 96.0345 64.3103 96.0345C64.3103 96.0345 64.3103 93.3347 64.3103 92.069C64.3103 91.0804 64.3103 88.1035 64.3103 88.1035C64.3103 88.1035 67.0745 88.1035 68.2758 88.1035C70.4658 88.1035 72.2414 89.8789 72.2414 92.069C72.2414 94.2589 70.4658 96.0345 68.2758 96.0345Z" fill="#D0BCFF"/>
<path d="M123.793 88.1035C125.983 88.1035 127.759 89.8789 127.759 92.069C127.759 94.2592 125.983 96.0345 123.793 96.0345C121.603 96.0345 119.828 94.2592 119.828 92.069C119.828 89.8789 121.603 88.1035 123.793 88.1035Z" fill="#D0BCFF"/>
<path d="M143.621 96.0345H151.552V88.1035C147.172 88.1035 143.621 91.6542 143.621 96.0345Z" fill="#D0BCFF"/>
<path d="M151.552 88.1035V96.0345H159.483C159.483 91.6542 155.932 88.1035 151.552 88.1035Z" fill="#D0BCFF"/>
<path d="M171.379 88.1035C172.304 88.1035 175.345 88.1035 175.345 88.1035C175.345 88.1035 175.345 90.8029 175.345 92.069C175.345 93.0573 175.345 96.0345 175.345 96.0345C175.345 96.0345 172.581 96.0345 171.379 96.0345C169.188 96.0345 167.414 94.2583 167.414 92.069C167.414 89.8794 169.188 88.1035 171.379 88.1035Z" fill="#D0BCFF"/>
<path d="M175.345 88.1035V96.0345H183.276C183.276 91.6542 179.725 88.1035 175.345 88.1035Z" fill="#D0BCFF"/>
<path d="M12.7586 96.0345C13.6829 96.0345 16.7241 96.0345 16.7241 96.0345C16.7241 96.0345 16.7241 98.7339 16.7241 100C16.7241 100.988 16.7241 103.966 16.7241 103.966C16.7241 103.966 13.9607 103.966 12.7586 103.966C10.5678 103.966 8.79309 102.189 8.79309 100C8.79309 97.8105 10.5678 96.0345 12.7586 96.0345Z" fill="#D0BCFF"/>
<path d="M24.6552 96.0345H16.7241V103.966H24.6552V96.0345Z" fill="#D0BCFF"/>
<path d="M24.6552 96.0345V103.966H32.5862C32.5862 99.5853 29.0353 96.0345 24.6552 96.0345Z" fill="#D0BCFF"/>
<path d="M52.4138 96.0345C54.604 96.0345 56.3793 97.8099 56.3793 100C56.3793 102.19 54.604 103.966 52.4138 103.966C50.2237 103.966 48.4483 102.19 48.4483 100C48.4483 97.8099 50.2237 96.0345 52.4138 96.0345Z" fill="#D0BCFF"/>
<path d="M76.2069 96.0345C78.397 96.0345 80.1724 97.8099 80.1724 100C80.1724 102.19 78.397 103.966 76.2069 103.966C74.0168 103.966 72.2414 102.19 72.2414 100C72.2414 97.8099 74.0168 96.0345 76.2069 96.0345Z" fill="#D0BCFF"/>
<path d="M88.1035 103.966H96.0345V96.0345C91.6544 96.0345 88.1035 99.5853 88.1035 103.966Z" fill="#D0BCFF"/>
<path d="M96.0345 96.0345V103.966H103.966C103.966 99.5853 100.415 96.0345 96.0345 96.0345Z" fill="#D0BCFF"/>
<path d="M119.828 100C119.828 100.924 119.828 103.966 119.828 103.966C119.828 103.966 117.128 103.966 115.862 103.965C114.873 103.966 111.897 103.965 111.897 103.965C111.897 103.965 111.897 101.202 111.897 99.9999C111.897 97.8099 113.672 96.0345 115.862 96.0345C118.052 96.0345 119.828 97.8099 119.828 100Z" fill="#D0BCFF"/>
<path d="M135.69 103.966H143.621V96.0345C139.241 96.0345 135.69 99.5853 135.69 103.966Z" fill="#D0BCFF"/>
<path d="M151.552 96.0345H143.621V103.966H151.552V96.0345Z" fill="#D0BCFF"/>
<path d="M159.483 96.0345H151.552V103.966H159.483V96.0345Z" fill="#D0BCFF"/>
<path d="M159.483 96.0345V103.966H167.414C167.414 99.5853 163.863 96.0345 159.483 96.0345Z" fill="#D0BCFF"/>
<path d="M183.276 103.966V96.0345H175.345C175.345 100.415 178.896 103.966 183.276 103.966Z" fill="#D0BCFF"/>
<path d="M191.207 96.0345H183.276V103.966H191.207V96.0345Z" fill="#D0BCFF"/>
<path d="M191.207 96.0345V103.966H199.138C199.138 99.5853 195.587 96.0345 191.207 96.0345Z" fill="#D0BCFF"/>
<path d="M24.6552 111.897V103.966H16.7241C16.7241 108.346 20.2749 111.897 24.6552 111.897Z" fill="#D0BCFF"/>
<path d="M32.5862 103.966H24.6552V111.897H32.5862V103.966Z" fill="#D0BCFF"/>
<path d="M32.5862 103.966V111.897H40.5172C40.5172 107.516 36.9664 103.966 32.5862 103.966Z" fill="#D0BCFF"/>
<path d="M96.0345 103.966H88.1035V111.897H96.0345V103.966Z" fill="#D0BCFF"/>
<path d="M103.966 103.966H96.0345V111.897C100.415 111.897 103.966 108.346 103.966 103.966Z" fill="#D0BCFF"/>
<path d="M119.828 111.897V103.966H111.897C111.897 108.346 115.447 111.897 119.828 111.897Z" fill="#D0BCFF"/>
<path d="M123.793 111.897C122.869 111.897 119.828 111.897 119.828 111.897C119.828 111.897 119.828 109.197 119.828 107.931C119.828 106.942 119.828 103.966 119.828 103.966C119.828 103.966 122.592 103.966 123.793 103.966C125.983 103.966 127.759 105.741 127.759 107.931C127.759 110.121 125.983 111.897 123.793 111.897Z" fill="#D0BCFF"/>
<path d="M143.621 103.966H135.69V111.897H143.621V103.966Z" fill="#D0BCFF"/>
<path d="M151.552 103.966H143.621V111.897H151.552V103.966Z" fill="#D0BCFF"/>
<path d="M159.483 103.966H151.552V111.897H159.483V103.966Z" fill="#D0BCFF"/>
<path d="M167.414 103.966H159.483V111.897H167.414V103.966Z" fill="#D0BCFF"/>
<path d="M191.207 107.931C191.207 107.007 191.207 103.966 191.207 103.966C191.207 103.966 193.907 103.966 195.172 103.966C196.161 103.966 199.138 103.966 199.138 103.966C199.138 103.966 199.138 106.73 199.138 107.931C199.138 110.121 197.362 111.897 195.172 111.897C192.982 111.897 191.207 110.121 191.207 107.931Z" fill="#D0BCFF"/>
<path d="M12.7586 111.897C14.9488 111.897 16.7241 113.672 16.7241 115.862C16.7241 118.052 14.9488 119.828 12.7586 119.828C10.5685 119.828 8.79309 118.052 8.79309 115.862C8.79309 113.672 10.5685 111.897 12.7586 111.897Z" fill="#D0BCFF"/>
<path d="M32.5862 119.828V111.897H24.6552C24.6552 116.277 28.2059 119.828 32.5862 119.828Z" fill="#D0BCFF"/>
<path d="M40.5172 111.897H32.5862V119.828H40.5172V111.897Z" fill="#D0BCFF"/>
<path d="M48.4483 111.897H40.5172V119.828H48.4483V111.897Z" fill="#D0BCFF"/>
<path d="M52.4138 119.828C51.4895 119.828 48.4483 119.828 48.4483 119.828C48.4483 119.828 48.4483 117.128 48.4483 115.862C48.4483 114.873 48.4483 111.897 48.4483 111.897C48.4483 111.897 51.2124 111.897 52.4138 111.897C54.6038 111.897 56.3793 113.672 56.3793 115.862C56.3793 118.052 54.6038 119.828 52.4138 119.828Z" fill="#D0BCFF"/>
<path d="M68.2758 111.897C69.2001 111.897 72.2414 111.897 72.2414 111.897C72.2414 111.897 72.2414 114.596 72.2414 115.862C72.2414 116.85 72.2414 119.828 72.2414 119.828C72.2414 119.828 69.4779 119.828 68.2758 119.828C66.085 119.828 64.3103 118.051 64.3103 115.862C64.3103 113.673 66.085 111.897 68.2758 111.897Z" fill="#D0BCFF"/>
<path d="M72.2414 111.897V119.828H80.1724C80.1724 115.447 76.6215 111.897 72.2414 111.897Z" fill="#D0BCFF"/>
<path d="M96.0345 111.897H88.1035V119.828H96.0345V111.897Z" fill="#D0BCFF"/>
<path d="M107.931 111.897C110.121 111.897 111.897 113.672 111.897 115.862C111.897 118.052 110.121 119.828 107.931 119.828C105.741 119.828 103.966 118.052 103.966 115.862C103.966 113.672 105.741 111.897 107.931 111.897Z" fill="#D0BCFF"/>
<path d="M131.724 111.897C132.648 111.897 135.69 111.897 135.69 111.897C135.69 111.897 135.69 114.596 135.69 115.862C135.69 116.85 135.69 119.828 135.69 119.828C135.69 119.828 132.926 119.828 131.724 119.828C129.533 119.828 127.759 118.051 127.759 115.862C127.759 113.673 129.533 111.897 131.724 111.897Z" fill="#D0BCFF"/>
<path d="M143.621 111.897H135.69V119.828H143.621V111.897Z" fill="#D0BCFF"/>
<path d="M151.552 111.897H143.621V119.828C148.001 119.828 151.552 116.277 151.552 111.897Z" fill="#D0BCFF"/>
<path d="M167.414 111.897H159.483V119.828H167.414V111.897Z" fill="#D0BCFF"/>
<path d="M179.31 111.897C180.235 111.897 183.276 111.897 183.276 111.897C183.276 111.897 183.276 114.596 183.276 115.862C183.276 116.85 183.276 119.828 183.276 119.828C183.276 119.828 180.512 119.828 179.31 119.828C177.119 119.828 175.345 118.051 175.345 115.862C175.345 113.673 177.119 111.897 179.31 111.897Z" fill="#D0BCFF"/>
<path d="M187.241 119.828C186.317 119.828 183.276 119.828 183.276 119.828C183.276 119.828 183.276 117.128 183.276 115.862C183.276 114.873 183.276 111.897 183.276 111.897C183.276 111.897 186.04 111.897 187.241 111.897C189.431 111.897 191.207 113.672 191.207 115.862C191.207 118.052 189.431 119.828 187.241 119.828Z" fill="#D0BCFF"/>
<path d="M4.82757 119.828C7.01776 119.828 8.79309 121.603 8.79309 123.793C8.79309 125.983 7.01776 127.759 4.82757 127.759C2.6375 127.759 0.862061 125.983 0.862061 123.793C0.862061 121.603 2.6375 119.828 4.82757 119.828Z" fill="#D0BCFF"/>
<path d="M24.6552 123.793C24.6552 124.717 24.6552 127.759 24.6552 127.759C24.6552 127.759 21.9555 127.759 20.6896 127.758C19.7011 127.759 16.7241 127.758 16.7241 127.758C16.7241 127.758 16.7241 124.995 16.7241 123.793C16.7242 121.603 18.4995 119.828 20.6895 119.828C22.8796 119.828 24.6552 121.603 24.6552 123.793Z" fill="#D0BCFF"/>
<path d="M60.3448 119.828C62.535 119.828 64.3103 121.603 64.3103 123.793C64.3103 125.983 62.535 127.759 60.3448 127.759C58.1547 127.759 56.3793 125.983 56.3793 123.793C56.3793 121.603 58.1547 119.828 60.3448 119.828Z" fill="#D0BCFF"/>
<path d="M72.2414 123.793C72.2414 122.869 72.2414 119.828 72.2414 119.828C72.2414 119.828 74.9411 119.828 76.2069 119.828C77.1955 119.828 80.1724 119.828 80.1724 119.828C80.1724 119.828 80.1724 122.592 80.1724 123.793C80.1724 125.983 78.3968 127.759 76.2069 127.759C74.0168 127.759 72.2414 125.983 72.2414 123.793Z" fill="#D0BCFF"/>
<path d="M88.1035 123.793C88.1035 122.869 88.1035 119.828 88.1035 119.828C88.1035 119.828 90.8032 119.828 92.069 119.828C93.0576 119.828 96.0345 119.828 96.0345 119.828C96.0345 119.828 96.0345 122.592 96.0345 123.793C96.0345 125.983 94.2589 127.759 92.069 127.759C89.8789 127.759 88.1035 125.983 88.1035 123.793Z" fill="#D0BCFF"/>
<path d="M119.828 123.793C119.828 124.717 119.828 127.759 119.828 127.759C119.828 127.759 117.128 127.759 115.862 127.758C114.873 127.759 111.897 127.758 111.897 127.758C111.897 127.758 111.897 124.995 111.897 123.793C111.897 121.603 113.672 119.828 115.862 119.828C118.052 119.828 119.828 121.603 119.828 123.793Z" fill="#D0BCFF"/>
<path d="M143.621 119.828H135.69V127.759H143.621V119.828Z" fill="#D0BCFF"/>
<path d="M151.552 127.759H159.483V119.828C155.103 119.828 151.552 123.378 151.552 127.759Z" fill="#D0BCFF"/>
<path d="M167.414 119.828H159.483V127.759H167.414V119.828Z" fill="#D0BCFF"/>
<path d="M199.138 123.793C199.138 124.717 199.138 127.759 199.138 127.759C199.138 127.759 196.438 127.759 195.172 127.758C194.184 127.759 191.207 127.758 191.207 127.758C191.207 127.758 191.207 124.995 191.207 123.793C191.207 121.603 192.982 119.828 195.172 119.828C197.362 119.828 199.138 121.603 199.138 123.793Z" fill="#D0BCFF"/>
<path d="M24.6552 135.69V127.759H16.7241C16.7241 132.139 20.2749 135.69 24.6552 135.69Z" fill="#D0BCFF"/>
<path d="M28.6207 135.69C27.6964 135.69 24.6552 135.69 24.6552 135.69C24.6552 135.69 24.6552 132.99 24.6552 131.724C24.6552 130.736 24.6552 127.759 24.6552 127.759C24.6552 127.759 27.4193 127.759 28.6207 127.759C30.8106 127.759 32.5862 129.534 32.5862 131.724C32.5862 133.914 30.8106 135.69 28.6207 135.69Z" fill="#D0BCFF"/>
<path d="M44.4828 127.759C45.407 127.759 48.4483 127.759 48.4483 127.759C48.4483 127.759 48.4483 130.458 48.4483 131.724C48.4483 132.712 48.4483 135.69 48.4483 135.69C48.4483 135.69 45.6848 135.69 44.4828 135.69C42.2919 135.69 40.5172 133.913 40.5172 131.724C40.5172 129.535 42.2919 127.759 44.4828 127.759Z" fill="#D0BCFF"/>
<path d="M52.4138 135.69C51.4895 135.69 48.4483 135.69 48.4483 135.69C48.4483 135.69 48.4483 132.99 48.4483 131.724C48.4483 130.736 48.4483 127.759 48.4483 127.759C48.4483 127.759 51.2124 127.759 52.4138 127.759C54.6038 127.759 56.3793 129.534 56.3793 131.724C56.3793 133.914 54.6038 135.69 52.4138 135.69Z" fill="#D0BCFF"/>
<path d="M72.2414 131.724C72.2414 132.648 72.2414 135.69 72.2414 135.69C72.2414 135.69 69.5417 135.69 68.2758 135.689C67.2873 135.69 64.3103 135.689 64.3103 135.689C64.3103 135.689 64.3103 132.926 64.3103 131.724C64.3104 129.534 66.0858 127.759 68.2758 127.759C70.4658 127.759 72.2414 129.534 72.2414 131.724Z" fill="#D0BCFF"/>
<path d="M88.1034 131.724C88.1034 132.648 88.1034 135.69 88.1034 135.69C88.1034 135.69 85.4038 135.69 84.1379 135.689C83.1493 135.69 80.1724 135.689 80.1724 135.689C80.1724 135.689 80.1724 132.926 80.1724 131.724C80.1725 129.534 81.9478 127.759 84.1378 127.759C86.3279 127.759 88.1034 129.534 88.1034 131.724Z" fill="#D0BCFF"/>
<path d="M100 127.759C102.19 127.759 103.966 129.534 103.966 131.724C103.966 133.914 102.19 135.69 100 135.69C97.8099 135.69 96.0345 133.914 96.0345 131.724C96.0345 129.534 97.8099 127.759 100 127.759Z" fill="#D0BCFF"/>
<path d="M119.828 127.759H111.897V135.69H119.828V127.759Z" fill="#D0BCFF"/>
<path d="M127.759 135.69H135.69V127.759C131.31 127.759 127.759 131.309 127.759 135.69Z" fill="#D0BCFF"/>
<path d="M143.621 127.759H135.69V135.69H143.621V127.759Z" fill="#D0BCFF"/>
<path d="M151.552 127.759H143.621V135.69H151.552V127.759Z" fill="#D0BCFF"/>
<path d="M159.483 127.759H151.552V135.69H159.483V127.759Z" fill="#D0BCFF"/>
<path d="M167.414 127.759H159.483V135.69H167.414V127.759Z" fill="#D0BCFF"/>
<path d="M175.345 127.759H167.414V135.69H175.345V127.759Z" fill="#D0BCFF"/>
<path d="M183.276 127.759H175.345V135.69H183.276V127.759Z" fill="#D0BCFF"/>
<path d="M191.207 127.759H183.276V135.69H191.207V127.759Z" fill="#D0BCFF"/>
<path d="M199.138 127.759H191.207V135.69H199.138V127.759Z" fill="#D0BCFF"/>
<path d="M72.2414 135.69H64.3103V143.621H72.2414V135.69Z" fill="#D0BCFF"/>
<path d="M80.1724 139.655C80.1724 138.731 80.1724 135.69 80.1724 135.69C80.1724 135.69 82.8721 135.69 84.1379 135.69C85.1265 135.69 88.1034 135.69 88.1034 135.69C88.1034 135.69 88.1034 138.454 88.1034 139.655C88.1034 141.845 86.3279 143.621 84.1379 143.621C81.9478 143.621 80.1724 141.845 80.1724 139.655Z" fill="#D0BCFF"/>
<path d="M119.828 135.69H111.897V143.621H119.828V135.69Z" fill="#D0BCFF"/>
<path d="M135.69 135.69H127.759V143.621H135.69V135.69Z" fill="#D0BCFF"/>
<path d="M167.414 135.69H159.483V143.621H167.414V135.69Z" fill="#D0BCFF"/>
<path d="M183.276 135.69H175.345V143.621H183.276V135.69Z" fill="#D0BCFF"/>
<path d="M199.138 135.69H191.207V143.621H199.138V135.69Z" fill="#D0BCFF"/>
<path d="M72.2414 143.621H64.3103V151.552H72.2414V143.621Z" fill="#D0BCFF"/>
<path d="M72.2414 143.621V151.552H80.1724C80.1724 147.171 76.6215 143.621 72.2414 143.621Z" fill="#D0BCFF"/>
<path d="M103.966 151.552H111.897V143.621C107.516 143.621 103.966 147.172 103.966 151.552Z" fill="#D0BCFF"/>
<path d="M119.828 143.621H111.897V151.552H119.828V143.621Z" fill="#D0BCFF"/>
<path d="M135.69 143.621H127.759V151.552H135.69V143.621Z" fill="#D0BCFF"/>
<path d="M147.586 143.621C149.776 143.621 151.552 145.396 151.552 147.586C151.552 149.776 149.776 151.552 147.586 151.552C145.396 151.552 143.621 149.776 143.621 147.586C143.621 145.396 145.396 143.621 147.586 143.621Z" fill="#D0BCFF"/>
<path d="M167.414 143.621H159.483V151.552H167.414V143.621Z" fill="#D0BCFF"/>
<path d="M183.276 151.552V143.621H175.345C175.345 148.001 178.896 151.552 183.276 151.552Z" fill="#D0BCFF"/>
<path d="M191.207 143.621H183.276V151.552H191.207V143.621Z" fill="#D0BCFF"/>
<path d="M199.138 143.621H191.207V151.552C195.587 151.552 199.138 148.001 199.138 143.621Z" fill="#D0BCFF"/>
<path d="M72.2414 159.483V151.552H64.3103C64.3103 155.932 67.8611 159.483 72.2414 159.483Z" fill="#D0BCFF"/>
<path d="M80.1724 151.552H72.2414V159.483H80.1724V151.552Z" fill="#D0BCFF"/>
<path d="M92.069 151.552C94.2592 151.552 96.0345 153.327 96.0345 155.517C96.0345 157.707 94.2592 159.483 92.069 159.483C89.8789 159.483 88.1035 157.707 88.1035 155.517C88.1035 153.327 89.8789 151.552 92.069 151.552Z" fill="#D0BCFF"/>
<path d="M111.897 151.552H103.966V159.483H111.897V151.552Z" fill="#D0BCFF"/>
<path d="M119.828 151.552H111.897V159.483H119.828V151.552Z" fill="#D0BCFF"/>
<path d="M127.759 151.552H119.828V159.483H127.759V151.552Z" fill="#D0BCFF"/>
<path d="M135.69 151.552H127.759V159.483H135.69V151.552Z" fill="#D0BCFF"/>
<path d="M167.414 151.552H159.483V159.483H167.414V151.552Z" fill="#D0BCFF"/>
<path d="M72.2414 163.448C72.2414 162.524 72.2414 159.483 72.2414 159.483C72.2414 159.483 74.9411 159.483 76.2069 159.483C77.1955 159.483 80.1724 159.483 80.1724 159.483C80.1724 159.483 80.1724 162.247 80.1724 163.448C80.1724 165.638 78.3968 167.414 76.2069 167.414C74.0168 167.414 72.2414 165.638 72.2414 163.448Z" fill="#D0BCFF"/>
<path d="M111.897 167.414V159.483H103.966C103.966 163.863 107.516 167.414 111.897 167.414Z" fill="#D0BCFF"/>
<path d="M119.828 159.483H111.897V167.414C116.277 167.414 119.828 163.863 119.828 159.483Z" fill="#D0BCFF"/>
<path d="M135.69 167.414V159.483H127.759C127.759 163.863 131.309 167.414 135.69 167.414Z" fill="#D0BCFF"/>
<path d="M143.621 159.483H135.69V167.414H143.621V159.483Z" fill="#D0BCFF"/>
<path d="M151.552 159.483H143.621V167.414H151.552V159.483Z" fill="#D0BCFF"/>
<path d="M159.483 159.483H151.552V167.414H159.483V159.483Z" fill="#D0BCFF"/>
<path d="M167.414 159.483H159.483V167.414H167.414V159.483Z" fill="#D0BCFF"/>
<path d="M167.414 159.483V167.414H175.345C175.345 163.034 171.794 159.483 167.414 159.483Z" fill="#D0BCFF"/>
<path d="M72.2414 171.379C72.2414 172.303 72.2414 175.345 72.2414 175.345C72.2414 175.345 69.5417 175.345 68.2758 175.345C67.2873 175.345 64.3103 175.345 64.3103 175.345C64.3103 175.345 64.3103 172.581 64.3103 171.379C64.3104 169.189 66.0858 167.414 68.2758 167.414C70.4658 167.414 72.2414 169.189 72.2414 171.379Z" fill="#D0BCFF"/>
<path d="M88.1034 171.379C88.1034 172.303 88.1034 175.345 88.1034 175.345C88.1034 175.345 85.4038 175.345 84.1379 175.345C83.1493 175.345 80.1724 175.345 80.1724 175.345C80.1724 175.345 80.1724 172.581 80.1724 171.379C80.1725 169.189 81.9478 167.414 84.1378 167.414C86.3279 167.414 88.1034 169.189 88.1034 171.379Z" fill="#D0BCFF"/>
<path d="M143.621 175.345V167.414H135.69C135.69 171.794 139.24 175.345 143.621 175.345Z" fill="#D0BCFF"/>
<path d="M151.552 167.414H143.621V175.345H151.552V167.414Z" fill="#D0BCFF"/>
<path d="M167.414 167.414H159.483V175.345H167.414V167.414Z" fill="#D0BCFF"/>
<path d="M175.345 167.414H167.414V175.345H175.345V167.414Z" fill="#D0BCFF"/>
<path d="M183.276 167.414H175.345V175.345H183.276V167.414Z" fill="#D0BCFF"/>
<path d="M191.207 167.414H183.276V175.345H191.207V167.414Z" fill="#D0BCFF"/>
<path d="M195.172 175.345C194.248 175.345 191.207 175.345 191.207 175.345C191.207 175.345 191.207 172.645 191.207 171.379C191.207 170.391 191.207 167.414 191.207 167.414C191.207 167.414 193.971 167.414 195.172 167.414C197.362 167.414 199.138 169.189 199.138 171.379C199.138 173.569 197.362 175.345 195.172 175.345Z" fill="#D0BCFF"/>
<path d="M64.3103 179.31C64.3103 178.386 64.3103 175.345 64.3103 175.345C64.3103 175.345 67.0101 175.345 68.2758 175.345C69.2644 175.345 72.2414 175.345 72.2414 175.345C72.2414 175.345 72.2414 178.109 72.2414 179.31C72.2414 181.5 70.4658 183.276 68.2758 183.276C66.0858 183.276 64.3103 181.5 64.3103 179.31Z" fill="#D0BCFF"/>
<path d="M88.1034 175.345H80.1724V183.276H88.1034V175.345Z" fill="#D0BCFF"/>
<path d="M111.897 183.276H119.828V175.345C115.447 175.345 111.897 178.896 111.897 183.276Z" fill="#D0BCFF"/>
<path d="M123.793 183.276C122.869 183.276 119.828 183.276 119.828 183.276C119.828 183.276 119.828 180.576 119.828 179.31C119.828 178.322 119.828 175.345 119.828 175.345C119.828 175.345 122.592 175.345 123.793 175.345C125.983 175.345 127.759 177.12 127.759 179.31C127.759 181.5 125.983 183.276 123.793 183.276Z" fill="#D0BCFF"/>
<path d="M143.621 179.31C143.621 178.386 143.621 175.345 143.621 175.345C143.621 175.345 146.32 175.345 147.586 175.345C148.575 175.345 151.552 175.345 151.552 175.345C151.552 175.345 151.552 178.109 151.552 179.31C151.552 181.5 149.776 183.276 147.586 183.276C145.396 183.276 143.621 181.5 143.621 179.31Z" fill="#D0BCFF"/>
<path d="M167.414 175.345H159.483V183.276H167.414V175.345Z" fill="#D0BCFF"/>
<path d="M183.276 175.345H175.345V183.276H183.276V175.345Z" fill="#D0BCFF"/>
<path d="M191.207 175.345H183.276V183.276C187.656 183.276 191.207 179.725 191.207 175.345Z" fill="#D0BCFF"/>
<path d="M88.1034 183.276H80.1724V191.207H88.1034V183.276Z" fill="#D0BCFF"/>
<path d="M96.0345 183.276H88.1035V191.207H96.0345V183.276Z" fill="#D0BCFF"/>
<path d="M103.966 183.276H96.0345V191.207H103.966V183.276Z" fill="#D0BCFF"/>
<path d="M111.897 183.276H103.966V191.207H111.897V183.276Z" fill="#D0BCFF"/>
<path d="M119.828 183.276H111.897V191.207C116.277 191.207 119.828 187.656 119.828 183.276Z" fill="#D0BCFF"/>
<path d="M143.621 187.241C143.621 188.166 143.621 191.207 143.621 191.207C143.621 191.207 140.921 191.207 139.655 191.207C138.667 191.207 135.69 191.207 135.69 191.207C135.69 191.207 135.69 188.443 135.69 187.241C135.69 185.051 137.465 183.276 139.655 183.276C141.845 183.276 143.621 185.051 143.621 187.241Z" fill="#D0BCFF"/>
<path d="M167.414 183.276H159.483V191.207H167.414V183.276Z" fill="#D0BCFF"/>
<path d="M183.276 183.276H175.345V191.207H183.276V183.276Z" fill="#D0BCFF"/>
<path d="M68.2758 191.207C70.466 191.207 72.2414 192.982 72.2414 195.172C72.2414 197.363 70.466 199.138 68.2758 199.138C66.0858 199.138 64.3103 197.363 64.3103 195.172C64.3103 192.982 66.0858 191.207 68.2758 191.207Z" fill="#D0BCFF"/>
<path d="M88.1034 199.138V191.207H80.1724C80.1724 195.587 83.7231 199.138 88.1034 199.138Z" fill="#D0BCFF"/>
<path d="M96.0345 191.207H88.1035V199.138C92.4836 199.138 96.0345 195.587 96.0345 191.207Z" fill="#D0BCFF"/>
<path d="M135.69 195.172C135.69 194.248 135.69 191.207 135.69 191.207C135.69 191.207 138.389 191.207 139.655 191.207C140.644 191.207 143.621 191.207 143.621 191.207C143.621 191.207 143.621 193.971 143.621 195.172C143.621 197.362 141.845 199.138 139.655 199.138C137.465 199.138 135.69 197.362 135.69 195.172Z" fill="#D0BCFF"/>
<path d="M155.517 191.207C156.442 191.207 159.483 191.207 159.483 191.207C159.483 191.207 159.483 193.906 159.483 195.172C159.483 196.161 159.483 199.138 159.483 199.138C159.483 199.138 156.719 199.138 155.517 199.138C153.326 199.138 151.552 197.362 151.552 195.172C151.552 192.983 153.326 191.207 155.517 191.207Z" fill="#D0BCFF"/>
<path d="M167.414 191.207H159.483V199.138H167.414V191.207Z" fill="#D0BCFF"/>
<path d="M175.345 191.207H167.414V199.138H175.345V191.207Z" fill="#D0BCFF"/>
<path d="M183.276 191.207H175.345V199.138H183.276V191.207Z" fill="#D0BCFF"/>
<path d="M191.207 191.207H183.276V199.138H191.207V191.207Z" fill="#D0BCFF"/>
<path d="M195.172 199.138C194.248 199.138 191.207 199.138 191.207 199.138C191.207 199.138 191.207 196.438 191.207 195.172C191.207 194.184 191.207 191.207 191.207 191.207C191.207 191.207 193.971 191.207 195.172 191.207C197.362 191.207 199.138 192.982 199.138 195.172C199.138 197.362 197.362 199.138 195.172 199.138Z" fill="#D0BCFF"/>
<path d="M0.862061 37.6262V19.5991C0.862061 9.26794 9.3673 0.862076 19.8162 0.862076H37.4257C47.8741 0.862076 56.3793 9.26794 56.3793 19.5991V56.3793L19.8162 56.3682C9.3673 56.3682 0.862061 47.9629 0.862061 37.6262ZM9.18964 37.6262C9.18964 43.3689 13.9564 48.0412 19.8184 48.0412L48.0517 48.0495V19.5991C48.0517 13.8592 43.285 9.18966 37.4257 9.18966H19.8162C13.9564 9.18966 9.18964 13.8592 9.18964 19.5991V37.6262Z" fill="#D0BCFF"/>
<path d="M199.138 37.6262V19.5991C199.138 9.26794 190.633 0.862076 180.184 0.862076H162.574C152.126 0.862076 143.621 9.26794 143.621 19.5991V56.3793L180.184 56.3682C190.633 56.3682 199.138 47.9629 199.138 37.6262ZM190.81 37.6262C190.81 43.3689 186.044 48.0412 180.182 48.0412L151.948 48.0495V19.5991C151.948 13.8592 156.715 9.18966 162.574 9.18966H180.184C186.044 9.18966 190.81 13.8592 190.81 19.5991V37.6262Z" fill="#D0BCFF"/>
<path d="M0.862061 162.374V180.401C0.862061 190.732 9.3673 199.138 19.8162 199.138H37.4257C47.8741 199.138 56.3793 190.732 56.3793 180.401V143.621L19.8162 143.632C9.3673 143.632 0.862061 152.037 0.862061 162.374ZM9.18964 162.374C9.18964 156.631 13.9564 151.959 19.8184 151.959L48.0517 151.951V180.401C48.0517 186.141 43.285 190.81 37.4257 190.81H19.8162C13.9564 190.81 9.18964 186.141 9.18964 180.401V162.374Z" fill="#D0BCFF"/>
<path d="M40.5172 16.7241H16.7241V40.5172H40.5172V16.7241Z" fill="#D0BCFF"/>
<path d="M183.276 16.7241H159.483V40.5172H183.276V16.7241Z" fill="#D0BCFF"/>
<path d="M40.5172 159.483H16.7241V183.276H40.5172V159.483Z" fill="#D0BCFF"/>
</svg>
