<svg width="214" height="59" viewBox="0 0 214 59" fill="none" xmlns="http://www.w3.org/2000/svg">
<g clip-path="url(#clip0_225_87)">
<path d="M6.0033 49.4069H4.59953L2.016 52.4347H1.28425V49.4069H0.194092V56.3797H1.28425V53.4392H2.28481L4.6294 56.3797H6.0481L3.1211 52.7696L6.0033 49.4069Z" fill="white"/>
<path d="M10.6777 54.9677H10.603L8.60192 49.4069H7.40723L10.0953 56.4234L9.88622 56.962C9.78994 57.3555 9.53754 57.6958 9.18434 57.9082C8.85925 58.0116 8.50887 58.0116 8.18378 57.9082L7.90004 58.8544L8.21365 58.9418C8.37748 58.9582 8.54262 58.9582 8.70646 58.9418C9.01444 58.9459 9.31982 58.8863 9.60248 58.7671C9.87582 58.6492 10.1164 58.4696 10.3044 58.243C10.5257 57.9784 10.6976 57.6778 10.8121 57.355L13.7989 49.3778H12.6042L10.6777 54.9677Z" fill="white"/>
<path d="M20.5488 49.7562C20.079 49.4555 19.5278 49.2984 18.9658 49.305C18.5831 49.2899 18.2028 49.37 17.8607 49.5379C17.6127 49.6561 17.3975 49.8309 17.2335 50.0474L16.89 50.5132H16.7556V49.4069H15.6953V59H16.8004V55.3025H16.89C16.9796 55.4335 17.0841 55.5937 17.2335 55.7829C17.4062 56.0007 17.6253 56.1795 17.8756 56.3069C18.2203 56.4663 18.5996 56.5413 18.9807 56.5253C19.541 56.5353 20.0919 56.3834 20.5637 56.0886C21.0275 55.7693 21.3981 55.3379 21.6389 54.8367C21.901 54.229 22.0283 53.5742 22.0123 52.9152C22.0317 52.2606 21.9043 51.6098 21.6389 51.0082C21.4014 50.5005 21.024 50.0671 20.5488 49.7562ZM20.6832 54.2399C20.5515 54.6206 20.3073 54.9548 19.9813 55.2006C19.6546 55.4515 19.2469 55.5805 18.8314 55.5646C18.4304 55.5762 18.0367 55.4585 17.7114 55.2297C17.3951 54.9841 17.1569 54.656 17.0244 54.2835C16.8453 53.8188 16.7641 53.3238 16.7855 52.8278C16.7774 52.3624 16.8532 51.8993 17.0095 51.4594C17.1475 51.098 17.3852 50.7806 17.6964 50.5423C18.0297 50.3196 18.4276 50.2073 18.8314 50.2221C19.2488 50.2082 19.659 50.3312 19.9962 50.5714C20.3165 50.8072 20.556 51.132 20.6832 51.5031C20.8494 51.9256 20.9305 52.3754 20.9221 52.8278C20.9379 53.308 20.862 53.7868 20.6981 54.2399H20.6832Z" fill="white"/>
<path d="M25.9399 50.6005C26.2707 50.3843 26.6618 50.2725 27.06 50.2803C27.4459 50.2547 27.8288 50.3615 28.1424 50.5822C28.4561 50.8028 28.6807 51.1234 28.7773 51.4885H29.8824C29.8301 51.0752 29.6651 50.6831 29.4046 50.3531C29.1377 50.0229 28.795 49.7586 28.404 49.5815C27.9762 49.3965 27.513 49.3022 27.045 49.3049C26.4474 49.2921 25.8595 49.4544 25.3575 49.7708C24.8636 50.0857 24.4703 50.5296 24.2226 51.0518C23.9431 51.6396 23.8052 52.282 23.8193 52.9297C23.8106 53.5707 23.943 54.2061 24.2076 54.793C24.4549 55.3072 24.8424 55.7453 25.3277 56.0595C25.7976 56.3319 26.3279 56.49 26.8738 56.5204C27.4197 56.5508 27.965 56.4526 28.4637 56.2341C28.8412 56.0555 29.1691 55.7909 29.4195 55.4626C29.6705 55.1342 29.8299 54.748 29.8824 54.3417H28.7773C28.7223 54.5852 28.604 54.8107 28.4339 54.9968C28.2741 55.1777 28.0752 55.3219 27.8514 55.4189C27.6011 55.5213 27.3314 55.5709 27.06 55.5645C26.6552 55.5701 26.2587 55.4531 25.925 55.2297C25.5919 54.9931 25.3332 54.6704 25.1783 54.298C24.9961 53.8338 24.9098 53.3391 24.9244 52.8423C24.9137 52.3728 25.0053 51.9064 25.1933 51.474C25.3549 51.1213 25.6133 50.8191 25.9399 50.6005Z" fill="white"/>
<path d="M34.915 51.9253H33.0184V49.4069H31.9133V56.3797H34.9001C35.3916 56.3932 35.8789 56.2882 36.3188 56.074C36.6843 55.8992 36.9865 55.6199 37.1849 55.2734C37.39 54.9237 37.4933 54.526 37.4836 54.1234C37.4899 53.8315 37.4348 53.5414 37.3218 53.2711C37.2088 53.0007 37.0403 52.7557 36.8265 52.5512C36.2953 52.1113 35.6109 51.8873 34.915 51.9253ZM35.9902 55.0405C35.687 55.2799 35.305 55.404 34.915 55.3898H33.0184V52.9297H34.915C35.305 52.9155 35.687 53.0396 35.9902 53.2791C36.1237 53.3903 36.2304 53.5288 36.3026 53.6848C36.3749 53.8408 36.411 54.0104 36.4084 54.1816C36.4107 54.3464 36.3743 54.5095 36.3018 54.6584C36.2293 54.8073 36.1227 54.938 35.9902 55.0405Z" fill="white"/>
<path d="M39.7386 49.4069H38.6335V56.3797H39.7386V49.4069Z" fill="white"/>
<path d="M47.4296 50.6005C47.765 50.3823 48.1614 50.2705 48.5645 50.2803C48.948 50.2582 49.3274 50.3667 49.6379 50.587C49.9484 50.8074 50.1708 51.126 50.267 51.4885H51.3721C51.3198 51.0752 51.1548 50.6831 50.8942 50.3531C50.6307 50.0197 50.2871 49.7547 49.8936 49.5815C49.4659 49.3965 49.0026 49.3022 48.5347 49.3049C47.937 49.2921 47.3492 49.4544 46.8472 49.7708C46.3568 50.0897 45.9646 50.5325 45.7122 51.0518C45.446 51.6413 45.3086 52.2783 45.3086 52.9224C45.3086 53.5665 45.446 54.2035 45.7122 54.793C45.9544 55.3274 46.356 55.7783 46.8647 56.0873C47.3734 56.3962 47.9657 56.5489 48.5645 56.5253C49.0448 56.5385 49.5212 56.4387 49.9534 56.2341C50.3332 56.059 50.6618 55.7937 50.9091 55.4626C51.1601 55.1342 51.3196 54.748 51.3721 54.3417H50.267C50.2119 54.5852 50.0936 54.8107 49.9235 54.9968C49.7679 55.182 49.5679 55.3271 49.3411 55.4189C49.0307 55.5411 48.6944 55.5877 48.3613 55.5548C48.0283 55.5218 47.7085 55.4102 47.4296 55.2297C47.0885 55.0012 46.8278 54.6759 46.6829 54.298C46.4877 53.837 46.3961 53.3407 46.4141 52.8423C46.4034 52.3728 46.495 51.9064 46.6829 51.474C46.8489 51.124 47.1064 50.8228 47.4296 50.6005Z" fill="white"/>
<path d="M58.0472 49.7562C57.6736 49.5298 57.2553 49.3825 56.8195 49.3239C56.3837 49.2653 55.9401 49.2967 55.5176 49.4162C55.0951 49.5356 54.7031 49.7404 54.367 50.0172C54.031 50.294 53.7584 50.6365 53.5671 51.0227C53.3012 51.6225 53.1641 52.269 53.1641 52.9224C53.1641 53.5758 53.3012 54.2223 53.5671 54.8221C53.8248 55.3422 54.2277 55.781 54.7296 56.088C55.2315 56.395 55.812 56.5579 56.4045 56.5579C56.997 56.5579 57.5775 56.395 58.0794 56.088C58.5813 55.781 58.9842 55.3422 59.2419 54.8221C59.5078 54.2223 59.645 53.5758 59.645 52.9224C59.645 52.269 59.5078 51.6225 59.2419 51.0227C58.9729 50.5 58.559 50.0613 58.0472 49.7562ZM58.2563 54.2253C58.1203 54.6079 57.8772 54.9458 57.5544 55.2006C57.1977 55.4372 56.7762 55.5637 56.3448 55.5637C55.9133 55.5637 55.4919 55.4372 55.1351 55.2006C54.8124 54.9458 54.5692 54.6079 54.4333 54.2253C54.2805 53.8098 54.2046 53.3711 54.2093 52.9297C54.206 52.4837 54.2817 52.0404 54.4333 51.6196C54.5727 51.2387 54.8152 50.9017 55.1351 50.6442C55.4919 50.4077 55.9133 50.2812 56.3448 50.2812C56.7762 50.2812 57.1977 50.4077 57.5544 50.6442C57.8743 50.9017 58.1169 51.2387 58.2563 51.6196C58.4199 52.0377 58.501 52.4822 58.4952 52.9297C58.5024 53.3726 58.4212 53.8126 58.2563 54.2253Z" fill="white"/>
<path d="M66.5445 53.0461C66.3088 52.9011 66.044 52.8067 65.7679 52.7695C66.1373 52.7015 66.4821 52.541 66.7685 52.3037C66.9004 52.1742 67.003 52.0192 67.0699 51.8487C67.1368 51.6783 67.1663 51.4961 67.1568 51.3138C67.1616 51.0531 67.1017 50.7951 66.982 50.5619C66.8624 50.3287 66.6867 50.1272 66.4698 49.9746C65.9358 49.6041 65.2871 49.4241 64.633 49.4651H61.6462V56.4379H65.0213C65.4536 56.4534 65.8835 56.3686 66.2757 56.1905C66.6021 56.0491 66.8777 55.816 67.0672 55.5208C67.2588 55.2411 67.3578 54.9109 67.3509 54.5746C67.3663 54.248 67.2832 53.9241 67.112 53.643C66.9746 53.4026 66.78 53.1979 66.5445 53.0461ZM62.7513 50.4404H64.633C64.9986 50.4228 65.3617 50.5088 65.6783 50.6879C65.7961 50.7641 65.8921 50.8682 65.9573 50.9904C66.0226 51.1126 66.0551 51.2489 66.0517 51.3866C66.0523 51.5779 65.9952 51.7653 65.8874 51.9252C65.7585 52.0796 65.5878 52.1956 65.3946 52.26C65.1524 52.3534 64.8933 52.398 64.633 52.391H62.7513V50.4404ZM65.977 55.2006C65.7184 55.3863 65.4018 55.4789 65.081 55.4626H62.7513V53.3081H65.081C65.411 53.2972 65.7324 53.4121 65.977 53.6284C66.0847 53.7414 66.168 53.8745 66.2218 54.0195C66.2757 54.1646 66.2991 54.3187 66.2906 54.4727C66.2886 54.5994 66.2597 54.7243 66.2058 54.8396C66.1518 54.9548 66.0739 55.0579 65.977 55.1423V55.2006Z" fill="white"/>
<path d="M74.3996 49.7562C73.9237 49.4568 73.3682 49.2999 72.8017 49.305C72.4192 49.2911 72.0392 49.3712 71.6966 49.5379C71.4541 49.6642 71.2407 49.8376 71.0694 50.0474L70.7259 50.5132H70.6065V49.4069H69.5312V59H70.6363V55.3025H70.7259L71.0694 55.7829C71.2456 55.9975 71.4639 56.1756 71.7116 56.3069C72.0562 56.4663 72.4356 56.5413 72.8167 56.5253C73.377 56.5353 73.9278 56.3834 74.3996 56.0886C74.8732 55.7798 75.2463 55.3454 75.4749 54.8367C75.7425 54.2302 75.8749 53.5752 75.8631 52.9151C75.8779 52.2595 75.7454 51.6086 75.4749 51.0082C75.2463 50.4994 74.8732 50.065 74.3996 49.7562ZM74.5191 54.2399C74.3874 54.6205 74.1432 54.9548 73.8172 55.2006C73.4918 55.4538 73.0832 55.5831 72.6673 55.5646C72.267 55.572 71.8746 55.4547 71.5473 55.2297C71.231 54.9841 70.9928 54.656 70.8603 54.2835C70.6813 53.8188 70.6 53.3238 70.6214 52.8278C70.6103 52.361 70.6914 51.8964 70.8603 51.4594C70.9876 51.0924 71.2274 50.7723 71.5473 50.5423C71.874 50.3177 72.2679 50.2051 72.6673 50.2221C73.0848 50.2082 73.4949 50.3312 73.8322 50.5714C74.1528 50.81 74.3965 51.1334 74.534 51.5031C74.6882 51.9284 74.764 52.3768 74.758 52.8278C74.7771 53.3094 74.6958 53.7897 74.5191 54.2399Z" fill="white"/>
<path d="M82.9717 50.1347C82.6847 49.8731 82.3436 49.6746 81.9712 49.5524C81.6156 49.432 81.2425 49.3681 80.8661 49.3632C80.2684 49.3503 79.6806 49.5126 79.1786 49.829C78.6882 50.148 78.296 50.5908 78.0436 51.1101C77.7659 51.7036 77.6281 52.3502 77.6404 53.0025C77.6262 53.6502 77.7641 54.2925 78.0436 54.8803C78.2963 55.4007 78.7017 55.8364 79.2084 56.1322C79.7441 56.4458 80.361 56.6024 80.9855 56.5835C81.4336 56.5894 81.879 56.5155 82.2997 56.3652C82.6663 56.235 82.998 56.026 83.2704 55.7537C83.5286 55.4884 83.7226 55.1701 83.8379 54.8221L82.7776 54.5309C82.6984 54.7647 82.5597 54.9751 82.3744 55.1424C82.2024 55.3016 81.9992 55.4254 81.777 55.5063C81.5207 55.5838 81.2539 55.6231 80.9855 55.6227C80.5774 55.6302 80.1748 55.5296 79.8207 55.3316C79.4779 55.1381 79.2023 54.8492 79.0292 54.5018C78.854 54.127 78.7624 53.7201 78.7604 53.3081H83.9424V52.8569C83.9621 52.298 83.876 51.7404 83.6885 51.2119C83.5322 50.8066 83.2876 50.4391 82.9717 50.1347ZM78.7903 52.3328C78.8075 52.0148 78.8887 51.7032 79.0292 51.4157C79.2016 51.0861 79.4525 50.8016 79.761 50.586C80.1008 50.3786 80.4952 50.2724 80.8959 50.2803C81.2625 50.2719 81.6243 50.3626 81.9413 50.5423C82.2347 50.7142 82.4687 50.9677 82.6133 51.2702C82.7779 51.601 82.8598 51.9652 82.8523 52.3328H78.7903Z" fill="white"/>
<path d="M92.813 49.4069H92.4994L90.0055 54.924L87.5414 49.4069H87.183H86.511H86.0779V56.3797H87.183V50.9499L89.5574 56.3797H90.4535L92.813 51.0373V56.3797H93.9181V49.4069H93.5447H92.813Z" fill="white"/>
<path d="M101.37 50.1347C101.088 49.8734 100.752 49.6748 100.384 49.5524C100.029 49.432 99.6556 49.3681 99.2792 49.3632C98.6815 49.3503 98.0937 49.5126 97.5917 49.829C97.0977 50.144 96.7045 50.5879 96.4567 51.1101C96.179 51.7036 96.0412 52.3502 96.0535 53.0025C96.0393 53.6502 96.1772 54.2925 96.4567 54.8803C96.7054 55.3987 97.1054 55.8342 97.6066 56.1322C98.1476 56.4462 98.7694 56.6028 99.3986 56.5835C99.8418 56.5893 100.282 56.5153 100.698 56.3652C101.067 56.2314 101.403 56.023 101.683 55.7537C101.937 55.4849 102.13 55.1676 102.251 54.8221L101.191 54.5018C101.11 54.7315 100.977 54.9405 100.802 55.1133C100.625 55.2729 100.417 55.3966 100.19 55.4772C99.9389 55.5546 99.677 55.5939 99.4136 55.5936C99.0009 55.5995 98.5939 55.499 98.2338 55.3025C97.8954 55.1081 97.6248 54.819 97.4573 54.4727C97.2745 54.1004 97.1825 53.6918 97.1884 53.279H102.37V52.8278C102.386 52.268 102.295 51.7102 102.102 51.1828C101.942 50.7839 101.692 50.4255 101.37 50.1347ZM97.1735 52.391C97.1856 52.0465 97.2795 51.7094 97.448 51.4063C97.6164 51.1031 97.8548 50.8423 98.1442 50.6442C98.4829 50.4345 98.8781 50.3281 99.2792 50.3385C99.6413 50.3282 99.9988 50.4191 100.31 50.6005C100.604 50.7755 100.842 51.0277 100.997 51.3284C101.161 51.6593 101.243 52.0234 101.235 52.391H97.1735Z" fill="white"/>
<path d="M109.016 52.4056H105.596V49.4069H104.491V56.3797H105.596V53.3955H109.016V56.3797H110.121V49.4069H109.016V52.4056Z" fill="white"/>
<path d="M117.125 52.4056H113.705V49.4069H112.6V56.3797H113.705V53.3955H117.125V56.3797H118.23V49.4069H117.125V52.4056Z" fill="white"/>
<path d="M128.534 49.4069H127.429V56.3797H128.534V49.4069Z" fill="white"/>
<path d="M123.711 51.9253H121.799V49.4069H120.709V56.3797H123.696C124.183 56.3958 124.666 56.2905 125.1 56.074C125.469 55.8994 125.776 55.6204 125.981 55.2734C126.186 54.9237 126.289 54.526 126.28 54.1234C126.286 53.8315 126.231 53.5414 126.118 53.2711C126.005 53.0007 125.836 52.7557 125.622 52.5512C125.091 52.1113 124.407 51.8873 123.711 51.9253ZM124.771 55.0405C124.478 55.2865 124.097 55.4117 123.711 55.3898H121.799V52.9297H123.711C124.097 52.9078 124.478 53.033 124.771 53.2791C124.909 53.3875 125.02 53.5252 125.095 53.6815C125.17 53.8379 125.207 54.009 125.204 54.1816C125.207 54.348 125.169 54.5127 125.094 54.662C125.019 54.8114 124.908 54.9411 124.771 55.0405Z" fill="white"/>
<path d="M135.135 49.4069L133.418 52.2601L131.7 49.4069H130.446L132.716 52.886L130.446 56.3797H131.7L133.418 53.6721L135.135 56.3797H136.404L134.09 52.886L136.404 49.4069H135.135Z" fill="white"/>
<path d="M141.93 56.3797H143.02V50.3967H146.455V56.3797H147.56V49.4069H141.93V56.3797Z" fill="white"/>
<path d="M154.952 49.7562C154.476 49.4568 153.921 49.2999 153.354 49.305C152.972 49.2911 152.592 49.3712 152.249 49.5379C152.004 49.6601 151.789 49.8342 151.622 50.0474L151.278 50.5132H151.144V49.4069H150.084V59H151.189V55.3025H151.278C151.368 55.4335 151.473 55.5937 151.622 55.7829C151.798 55.9975 152.016 56.1756 152.264 56.3069C152.609 56.4663 152.988 56.5413 153.369 56.5253C153.929 56.5353 154.48 56.3834 154.952 56.0886C155.416 55.7693 155.787 55.3379 156.027 54.8367C156.295 54.2302 156.427 53.5752 156.416 52.9151C156.43 52.2595 156.298 51.6086 156.027 51.0082C155.791 50.5043 155.419 50.0719 154.952 49.7562ZM155.072 54.2399C154.94 54.6205 154.696 54.9548 154.37 55.2006C154.044 55.4538 153.636 55.5831 153.22 55.5646C152.819 55.572 152.427 55.4547 152.1 55.2297C151.784 54.9841 151.545 54.656 151.413 54.2835C151.234 53.8188 151.153 53.3238 151.174 52.8278C151.166 52.3624 151.242 51.8993 151.398 51.4594C151.536 51.0939 151.78 50.7752 152.1 50.5423C152.427 50.3177 152.82 50.2051 153.22 50.2221C153.637 50.2082 154.047 50.3312 154.385 50.5714C154.705 50.8072 154.944 51.132 155.072 51.5031C155.238 51.9256 155.319 52.3754 155.311 52.8278C155.292 53.3175 155.17 53.7982 154.952 54.2399H155.072Z" fill="white"/>
<path d="M163.076 49.7562C162.563 49.4604 161.977 49.3043 161.381 49.3043C160.785 49.3043 160.199 49.4604 159.686 49.7562C159.193 50.0654 158.799 50.5045 158.551 51.0227C158.275 51.6199 158.133 52.2675 158.133 52.9224C158.133 53.5774 158.275 54.2248 158.551 54.8221C158.796 55.3385 159.19 55.7737 159.686 56.074C160.199 56.3698 160.785 56.5259 161.381 56.5259C161.977 56.5259 162.563 56.3698 163.076 56.074C163.572 55.7737 163.966 55.3385 164.211 54.8221C164.487 54.2248 164.629 53.5774 164.629 52.9224C164.629 52.2675 164.487 51.6199 164.211 51.0227C163.963 50.5045 163.569 50.0654 163.076 49.7562ZM163.3 54.2253C163.164 54.6079 162.921 54.9457 162.598 55.2006C162.239 55.4384 161.815 55.5656 161.381 55.5656C160.947 55.5656 160.523 55.4384 160.164 55.2006C159.841 54.9457 159.598 54.6079 159.462 54.2253C159.309 53.8097 159.233 53.3711 159.238 52.9297C159.235 52.4837 159.311 52.0404 159.462 51.6195C159.602 51.2387 159.844 50.9017 160.164 50.6442C160.523 50.4064 160.947 50.2792 161.381 50.2792C161.815 50.2792 162.239 50.4064 162.598 50.6442C162.918 50.9017 163.161 51.2387 163.3 51.6195C163.452 52.0404 163.527 52.4837 163.524 52.9297C163.529 53.3711 163.453 53.8097 163.3 54.2253Z" fill="white"/>
<path d="M173.111 50.3094C172.829 49.9901 172.477 49.7364 172.081 49.567C171.662 49.388 171.209 49.2986 170.752 49.305V47.0777H169.662V49.305C169.205 49.2986 168.751 49.388 168.333 49.567C167.938 49.7389 167.587 49.9922 167.302 50.3094C167.011 50.6437 166.788 51.0291 166.645 51.4448C166.489 51.9152 166.409 52.4062 166.406 52.9006C166.406 53.3951 166.487 53.8865 166.645 54.3563C166.788 54.772 167.011 55.1574 167.302 55.4917C167.584 55.808 167.937 56.057 168.333 56.2196C168.751 56.3986 169.205 56.4879 169.662 56.4816V58.7234H170.752V56.4816C171.209 56.4879 171.662 56.3986 172.081 56.2196C172.479 56.0609 172.833 55.8112 173.111 55.4917C173.408 55.1612 173.632 54.7747 173.769 54.3563C173.927 53.8865 174.008 53.3951 174.008 52.9006C174.005 52.4062 173.925 51.9152 173.769 51.4448C173.632 51.0265 173.408 50.64 173.111 50.3094ZM169.662 55.5645C169.227 55.5855 168.799 55.4567 168.452 55.2006C168.124 54.9471 167.876 54.6092 167.735 54.2253C167.583 53.8097 167.507 53.3711 167.511 52.9297C167.51 52.5905 167.555 52.2527 167.646 51.9253C167.716 51.6215 167.848 51.3344 168.034 51.0809C168.209 50.835 168.439 50.631 168.706 50.4841C169.004 50.3439 169.331 50.2741 169.662 50.2803V55.5645ZM172.768 53.9196C172.697 54.2279 172.565 54.5196 172.38 54.7784C172.209 55.0152 171.984 55.2096 171.723 55.3461C171.423 55.4981 171.089 55.5733 170.752 55.5645V50.2803C171.191 50.262 171.623 50.3904 171.977 50.6442C172.292 50.9059 172.533 51.2415 172.678 51.6195C172.83 52.0404 172.906 52.4837 172.902 52.9297C172.905 53.2641 172.86 53.5973 172.768 53.9196Z" fill="white"/>
<path d="M181.116 50.1347C180.829 49.8731 180.488 49.6746 180.115 49.5524C179.76 49.432 179.387 49.3681 179.01 49.3632C178.413 49.3503 177.825 49.5126 177.323 49.829C176.833 50.148 176.44 50.5908 176.188 51.1101C175.91 51.7036 175.772 52.3502 175.785 53.0025C175.771 53.6502 175.908 54.2925 176.188 54.8803C176.437 55.3987 176.837 55.8342 177.338 56.1322C177.879 56.4447 178.501 56.6012 179.13 56.5835C179.578 56.5882 180.023 56.5142 180.444 56.3652C180.809 56.2315 181.14 56.023 181.415 55.7537C181.673 55.4884 181.867 55.1701 181.982 54.8221L180.922 54.5309C180.84 54.758 180.705 54.9638 180.529 55.1328C180.354 55.3017 180.14 55.4295 179.906 55.5063C179.655 55.5849 179.393 55.6241 179.13 55.6227C178.717 55.6286 178.31 55.5282 177.95 55.3316C177.612 55.1373 177.341 54.8481 177.174 54.5018C176.998 54.127 176.907 53.7201 176.905 53.3081H182.087V52.8569C182.099 52.2985 182.013 51.7421 181.833 51.2119C181.676 50.8066 181.432 50.4391 181.116 50.1347ZM176.905 52.391C176.922 52.073 177.003 51.7615 177.144 51.474C177.316 51.1444 177.567 50.8598 177.875 50.6442C178.215 50.4369 178.61 50.3307 179.01 50.3385C179.377 50.3301 179.739 50.4208 180.056 50.6005C180.346 50.7764 180.579 51.0287 180.728 51.3284C180.892 51.6593 180.974 52.0234 180.967 52.391H176.905Z" fill="white"/>
<path d="M185.999 50.6005C186.329 50.3817 186.721 50.2696 187.119 50.2803C187.541 50.2553 187.956 50.3852 188.284 50.6442C188.55 50.8659 188.743 51.1598 188.837 51.4885H189.942C189.889 51.0752 189.724 50.6831 189.464 50.3531C189.197 50.0229 188.854 49.7586 188.463 49.5815C188.036 49.3965 187.572 49.3022 187.104 49.3049C186.507 49.2921 185.919 49.4544 185.417 49.7708C184.923 50.0857 184.53 50.5296 184.282 51.0518C184.002 51.6396 183.865 52.282 183.879 52.9297C183.87 53.5707 184.002 54.2061 184.267 54.793C184.514 55.3072 184.902 55.7453 185.387 56.0595C185.902 56.3844 186.506 56.5471 187.119 56.5253C187.6 56.5427 188.077 56.4426 188.508 56.2341C188.892 56.0595 189.226 55.7944 189.479 55.4626C189.724 55.1309 189.882 54.7463 189.942 54.3417H188.837C188.782 54.5852 188.663 54.8107 188.493 54.9968C188.331 55.1814 188.126 55.3261 187.896 55.4189C187.651 55.5214 187.386 55.5711 187.119 55.5645C186.715 55.5701 186.318 55.4531 185.984 55.2297C185.651 54.9931 185.393 54.6704 185.238 54.298C185.055 53.8338 184.969 53.3391 184.984 52.8423C184.973 52.3728 185.065 51.9064 185.253 51.474C185.414 51.1213 185.673 50.8191 185.999 50.6005Z" fill="white"/>
<path d="M193.78 50.6005C194.109 50.3817 194.501 50.2696 194.9 50.2803C195.286 50.2547 195.669 50.3615 195.982 50.5822C196.296 50.8028 196.52 51.1234 196.617 51.4885H197.722C197.67 51.0752 197.505 50.6831 197.244 50.3531C196.978 50.0229 196.635 49.7586 196.244 49.5815C195.816 49.3965 195.353 49.3022 194.885 49.3049C194.287 49.2921 193.699 49.4544 193.197 49.7708C192.703 50.0857 192.31 50.5296 192.062 51.0518C191.783 51.6396 191.645 52.282 191.659 52.9297C191.65 53.5707 191.783 54.2061 192.047 54.793C192.295 55.3072 192.682 55.7453 193.167 56.0595C193.637 56.3319 194.168 56.49 194.714 56.5204C195.259 56.5508 195.805 56.4526 196.304 56.2341C196.683 56.0586 197.011 55.7936 197.259 55.4632C197.507 55.1327 197.666 54.7473 197.722 54.3417H196.617C196.562 54.5852 196.444 54.8107 196.274 54.9968C196.114 55.1777 195.915 55.3219 195.691 55.4189C195.441 55.5213 195.171 55.5709 194.9 55.5645C194.495 55.5701 194.099 55.4531 193.765 55.2297C193.432 54.9931 193.173 54.6704 193.018 54.298C192.836 53.8338 192.75 53.3391 192.764 52.8423C192.754 52.3728 192.845 51.9064 193.033 51.474C193.195 51.1213 193.453 50.8191 193.78 50.6005Z" fill="white"/>
<path d="M200.784 54.8076V49.4069H199.694V56.3797H200.978L204.413 50.979V56.3797H205.503V49.4069H204.233L200.784 54.8076Z" fill="white"/>
<path d="M210.879 47.9657C210.751 47.9773 210.623 47.9596 210.504 47.9141C210.384 47.8686 210.278 47.7965 210.192 47.7037C210.061 47.5201 209.993 47.3011 209.998 47.0777H208.967C208.961 47.3038 209.005 47.5285 209.095 47.7369C209.185 47.9453 209.32 48.1325 209.49 48.286C209.875 48.6085 210.372 48.7752 210.879 48.7518C211.147 48.7745 211.417 48.745 211.674 48.665C211.93 48.585 212.167 48.4562 212.372 48.286C212.545 48.1344 212.681 47.9475 212.772 47.7387C212.862 47.5298 212.904 47.3042 212.895 47.0777H211.879C211.881 47.3053 211.802 47.5263 211.655 47.7037C211.56 47.8088 211.439 47.8882 211.302 47.9341C211.166 47.98 211.021 47.9909 210.879 47.9657Z" fill="white"/>
<path d="M209.072 54.8076V49.4069H207.967V56.3797H209.266L212.701 50.979V56.3797H213.791V49.4069H212.522L209.072 54.8076Z" fill="white"/>
<path d="M23.0427 2.09624C20.6092 1.00718 17.9543 0.469695 15.2772 0.524094H0V38.6929H8.0642V25.2421H15.1428C19.0558 25.4672 22.9224 24.321 26.0444 22.0104C27.3507 20.926 28.3851 19.5647 29.0684 18.0306C29.7518 16.4965 30.0659 14.8304 29.9869 13.1597C30.0283 10.8402 29.4023 8.55572 28.1799 6.56529C26.9545 4.61645 25.1679 3.0622 23.0427 2.09624ZM20.1605 17.4103C18.7739 18.4684 17.0337 18.9872 15.2772 18.866H8.0642V6.90007H15.5311C16.3933 6.86923 17.2529 7.01093 18.0568 7.31638C18.8607 7.62182 19.5919 8.08454 20.2053 8.67604C20.7805 9.28685 21.2258 10.0027 21.5154 10.7823C21.8051 11.5619 21.9333 12.3897 21.8928 13.2179C21.937 13.9978 21.8047 14.7776 21.5053 15.502C21.206 16.2265 20.7468 16.878 20.1605 17.4103Z" fill="white"/>
<path d="M56.3897 38.6928H65.0513V38.3289L56.5839 22.7237C58.7148 21.872 60.5425 20.4295 61.8405 18.5749C63.0539 16.6105 63.6557 14.3448 63.5728 12.0533C63.6622 10.4491 63.3689 8.84664 62.716 7.37158C62.063 5.89653 61.0682 4.58909 59.8095 3.55194C57.3007 1.54306 53.7315 0.538605 49.1021 0.538605H34.5566V38.7074H42.6208V24.7325H49.0573L56.3897 38.6928ZM42.6208 6.90006H49.1021C49.9734 6.82977 50.8503 6.93009 51.6813 7.19508C52.5122 7.46008 53.2804 7.88441 53.9406 8.44311C54.4659 9.0199 54.8685 9.69271 55.1248 10.4224C55.3812 11.1521 55.4863 11.9242 55.434 12.6938C55.4771 13.4619 55.35 14.2299 55.0614 14.9458C54.7728 15.6617 54.3294 16.3087 53.7614 16.8426C52.4432 17.8985 50.7589 18.4197 49.0573 18.2983H42.6208V6.90006Z" fill="white"/>
<path d="M98.9954 30.3516C100.425 27.2467 101.124 23.8695 101.041 20.4673V18.7642C101.114 15.3597 100.405 11.9826 98.9656 8.87986C97.6893 6.15678 95.6097 3.8661 92.9921 2.30005C90.3533 0.794273 87.3508 0.000579834 84.2932 0.000579834C81.2356 0.000579834 78.2331 0.794273 75.5943 2.30005C73.053 3.89545 71.0486 6.18344 69.8299 8.87986C68.3827 11.9908 67.6683 15.3781 67.7392 18.7933V20.6857C67.6815 24.0433 68.3959 27.371 69.8299 30.4244C71.12 33.1196 73.1981 35.3834 75.8034 36.9314C78.4464 38.4326 81.4507 39.2236 84.5097 39.2236C87.5688 39.2236 90.573 38.4326 93.2161 36.9314C95.7658 35.3415 97.7765 33.0523 98.9954 30.3516ZM92.8726 20.5983C93.0849 23.7598 92.3425 26.9126 90.7371 29.6674C90.061 30.6668 89.1303 31.4779 88.036 32.0214C86.9418 32.5649 85.7216 32.8222 84.4948 32.7681C83.241 32.8176 81.9957 32.5468 80.8824 31.9825C79.7691 31.4182 78.8264 30.5799 78.148 29.5509C76.5279 26.7947 75.7652 23.6386 75.9527 20.4673V18.6186C75.7556 15.4566 76.5303 12.3091 78.1778 9.57861C78.9022 8.61868 79.848 7.83825 80.9388 7.30038C82.0297 6.7625 83.235 6.48225 84.4575 6.48225C85.6799 6.48225 86.8853 6.7625 87.9761 7.30038C89.067 7.83825 90.0127 8.61868 90.7371 9.57861C92.3918 12.3379 93.1615 15.5166 92.9473 18.7059L92.8726 20.5983Z" fill="white"/>
<path d="M136.046 27.6876L129.625 0.524063H122.785L116.334 27.6294L111.032 0.524063H102.998L111.674 38.6928H119.798L126.175 13.1596L132.552 38.6928H140.676L149.367 0.524063H141.318L136.046 27.6876Z" fill="white"/>
<path d="M179.637 32.375H161.463V22.1559H176.949V15.9837H161.463V6.90008H179.593V0.524063H153.399V38.6928H179.637V32.375Z" fill="white"/>
<path d="M210.386 35.8105C211.614 34.7908 212.58 33.5056 213.207 32.0573C213.835 30.6091 214.106 29.038 214 27.4693C214.059 25.515 213.444 23.5979 212.253 22.0249C211.07 20.5478 209.396 19.5183 207.519 19.1135C209.226 18.5134 210.692 17.3962 211.7 15.9255C212.701 14.4667 213.222 12.7453 213.194 10.9906C213.286 9.49593 212.999 8.0021 212.358 6.6412C211.718 5.28029 210.743 4.09426 209.52 3.18801C207.061 1.41204 203.457 0.524078 198.708 0.524078H184.984V38.6928H200.201C204.592 38.6637 207.987 37.7029 210.386 35.8105ZM192.958 6.90006H198.618C200.323 6.7706 202.027 7.16788 203.487 8.03551C204.024 8.49723 204.441 9.07797 204.701 9.72894C204.96 10.3799 205.056 11.0821 204.98 11.7767C204.98 14.8628 202.944 16.4447 198.872 16.5223H192.899L192.958 6.90006ZM192.958 32.375V22.0686H200.425C204.129 22.1268 205.981 23.9028 205.981 27.3965C206.019 28.0841 205.895 28.7712 205.618 29.4046C205.341 30.0381 204.918 30.6012 204.383 31.0504C203.104 32.0083 201.512 32.4792 199.903 32.375H192.958Z" fill="white"/>
</g>
<defs>
<clipPath id="clip0_225_87">
<rect width="214" height="59" fill="white"/>
</clipPath>
</defs>
</svg>
