<svg width="26" height="25" viewBox="0 0 26 25" fill="none" xmlns="http://www.w3.org/2000/svg">
<path d="M12.8749 2.08334C10.1122 2.08334 7.46273 3.18081 5.50922 5.13431C3.55572 7.08782 2.45825 9.73734 2.45825 12.5C2.45825 15.2627 3.55572 17.9122 5.50922 19.8657C7.46273 21.8192 10.1122 22.9167 12.8749 22.9167C15.6376 22.9167 18.2871 21.8192 20.2406 19.8657C22.1941 17.9122 23.2916 15.2627 23.2916 12.5C23.2916 9.73734 22.1941 7.08782 20.2406 5.13431C18.2871 3.18081 15.6376 2.08334 12.8749 2.08334Z" fill="white"/>
<path d="M18.0572 7.81249L16.1062 17.7739C16.1062 17.7739 16.0223 18.2292 15.4577 18.2292C15.1577 18.2292 15.003 18.0865 15.003 18.0865L10.777 14.5797L8.70929 13.5375L6.05565 12.8318C6.05565 12.8318 5.58325 12.6953 5.58325 12.3047C5.58325 11.9792 6.06919 11.8239 6.06919 11.8239L17.1713 7.41353C17.1708 7.41301 17.5103 7.29114 17.7577 7.29166C17.9098 7.29166 18.0833 7.35676 18.0833 7.55207C18.0833 7.68228 18.0572 7.81249 18.0572 7.81249Z" fill="#323232"/>
<path d="M12.3541 15.888L10.5697 17.6453C10.5697 17.6453 10.4921 17.7052 10.3885 17.7078C10.3525 17.7089 10.314 17.7031 10.2744 17.6854L10.7765 14.5786L12.3541 15.888Z" fill="#B0BEC5"/>
<path d="M15.9463 9.47709C15.8583 9.3625 15.6958 9.34167 15.5812 9.42865L8.70825 13.5417C8.70825 13.5417 9.80513 16.6104 9.97231 17.1417C10.14 17.6734 10.2744 17.6859 10.2744 17.6859L10.7765 14.5792L15.8973 9.84167C16.0119 9.75469 16.0333 9.59167 15.9463 9.47709Z" fill="#797979"/>
</svg>
