<svg width="80" height="80" viewBox="0 0 80 80" fill="none" xmlns="http://www.w3.org/2000/svg">
<path d="M40.0001 6.66667C31.1595 6.66667 22.6811 10.1786 16.4299 16.4298C10.1786 22.681 6.66675 31.1595 6.66675 40C6.66675 48.8406 10.1786 57.319 16.4299 63.5702C22.6811 69.8214 31.1595 73.3333 40.0001 73.3333C48.8406 73.3333 57.3191 69.8214 63.5703 63.5702C69.8215 57.319 73.3334 48.8406 73.3334 40C73.3334 31.1595 69.8215 22.681 63.5703 16.4298C57.3191 10.1786 48.8406 6.66667 40.0001 6.66667V6.66667Z" fill="#29B6F6"/>
<path d="M56.5834 25L50.3401 56.8767C50.3401 56.8767 50.0717 58.3333 48.2651 58.3333C47.3051 58.3333 46.8101 57.8767 46.8101 57.8767L33.2867 46.655L26.6701 43.32L18.1784 41.0617C18.1784 41.0617 16.6667 40.625 16.6667 39.375C16.6667 38.3333 18.2217 37.8367 18.2217 37.8367L53.7484 23.7233C53.7467 23.7217 54.8334 23.3317 55.6251 23.3333C56.1117 23.3333 56.6667 23.5417 56.6667 24.1667C56.6667 24.5833 56.5834 25 56.5834 25Z" fill="white"/>
<path d="M38.3332 50.8417L32.6232 56.465C32.6232 56.465 32.3749 56.6567 32.0432 56.665C31.9282 56.6683 31.8049 56.65 31.6782 56.5933L33.2849 46.6517L38.3332 50.8417Z" fill="#B0BEC5"/>
<path d="M49.8284 30.3267C49.5467 29.96 49.0267 29.8933 48.6601 30.1717L26.6667 43.3333C26.6667 43.3333 30.1767 53.1533 30.7117 54.8533C31.2484 56.555 31.6784 56.595 31.6784 56.595L33.2851 46.6533L49.6717 31.4933C50.0384 31.215 50.1067 30.6933 49.8284 30.3267Z" fill="#CFD8DC"/>
</svg>
